<svg xmlns="http://www.w3.org/2000/svg" version="1.1" xmlns:xlink="http://www.w3.org/1999/xlink" xmlns:svgjs="http://svgjs.dev/svgjs" width="1500" height="1500" viewBox="0 0 1500 1500"><rect width="1500" height="1500" fill="#7c4e29"></rect><g transform="matrix(0.6666666666666666,0,0,0.6666666666666666,249.39393939393938,573.5616675750713)"><svg viewBox="0 0 396 139" data-background-color="#7c4e29" preserveAspectRatio="xMidYMid meet" height="526" width="1500" xmlns="http://www.w3.org/2000/svg" xmlns:xlink="http://www.w3.org/1999/xlink"><g id="tight-bounds" transform="matrix(1,0,0,1,0.2400000000000091,0.4380081950525607)"><svg viewBox="0 0 395.52 138.1239836098949" height="138.1239836098949" width="395.52"><g><svg viewBox="0 0 651.5281283274139 227.5274588351568" height="138.1239836098949" width="395.52"><g transform="matrix(1,0,0,1,256.00812832741394,67.51494758627484)"><svg viewBox="0 0 395.52 92.4975636626071" height="92.4975636626071" width="395.52"><g id="textblocktransform"><svg viewBox="0 0 395.52 92.4975636626071" height="92.4975636626071" width="395.52" id="textblock"><g><svg viewBox="0 0 395.52 60.32097606757391" height="60.32097606757391" width="395.52"><g transform="matrix(1,0,0,1,0,0)"><svg width="395.52" viewBox="1.1 -32.05 213.08 32.5" height="60.32097606757391" data-palette-color="#ffffff"><path d="M23.15-32.05L23.45-31.65 23.15-28.55 17.55-28.85 14.3-28.85 14.15-10 14.3 0 10.25 0 10.55-9.65 10.3-28.85 7.05-28.85 1.35-28.55 1.1-28.95 1.4-32.05 23.15-32.05ZM36.9-24.9L45.65 0 41.9 0 41.3-2.7 40-6.4 34.05-6.45 28.75-6.4 27.4-2.9 26.7 0 23 0 32.6-24.9 36.9-24.9ZM34.35-9.4L38.95-9.45 34.8-21.25 34.5-21.25 29.95-9.45 34.35-9.4ZM59.2-25.15Q62.24-25.15 65.3-23.95L65.3-23.95 64.64-20.25 64.05-20.1Q62.64-21.2 61.39-21.73 60.14-22.25 58.8-22.25L58.8-22.25Q56.64-22.25 55.39-21.13 54.14-20 54.14-18.55L54.14-18.55Q54.14-17.1 55.37-16.2 56.59-15.3 59.14-14.2L59.14-14.2Q61.39-13.2 62.72-12.4 64.05-11.6 65.02-10.28 66-8.95 66-7.05L66-7.05Q66-5.1 64.94-3.43 63.89-1.75 61.87-0.73 59.84 0.3 57.05 0.3L57.05 0.3Q55.3 0.3 53.37-0.13 51.45-0.55 49.8-1.4L49.8-1.4 50.24-5.35 50.74-5.55Q52.14-4.15 54.02-3.38 55.89-2.6 57.49-2.6L57.49-2.6Q59.59-2.6 60.95-3.73 62.3-4.85 62.3-6.45L62.3-6.45Q62.3-7.95 61.07-8.85 59.84-9.75 57.24-10.95L57.24-10.95Q55.09-11.9 53.72-12.7 52.34-13.5 51.39-14.83 50.45-16.15 50.45-18.05L50.45-18.05Q50.45-20.05 51.52-21.65 52.59-23.25 54.57-24.2 56.55-25.15 59.2-25.15L59.2-25.15ZM91.79-24.95L81.19-13.25Q86.49-6.75 92.44-0.85L92.44-0.85 92.34-0.3Q90.79 0.2 88.74 0.45L88.74 0.45 88.14 0.2Q81.74-7 77.09-13L77.09-13 77.09-13.3 85.69-22.7 87.34-24.9 91.79-24.95ZM76.84-24.9L76.69-7.8 76.79 0 73.09 0 73.24-7.5 73.09-24.9 76.84-24.9ZM116.24-32.05L116.54-31.65 116.24-28.55 110.64-28.85 107.39-28.85 107.24-10 107.39 0 103.34 0 103.64-9.65 103.39-28.85 100.14-28.85 94.44-28.55 94.19-28.95 94.49-32.05 116.24-32.05ZM133.54-10.05Q136.59-5.4 140.29-0.9L140.29-0.9 140.24-0.4Q138.14 0.25 136.79 0.35L136.79 0.35 136.14-0.05Q132.34-5.8 130.39-9.1L130.39-9.1 125.69-9.05 125.69-7.8 125.79 0 122.09 0 122.24-7.5 122.09-24.9 130.59-24.95Q134.54-24.95 136.66-23.1 138.79-21.25 138.79-17.75L138.79-17.75Q138.79-15.2 137.41-13.2 136.04-11.2 133.54-10.05L133.54-10.05ZM125.79-21.9L125.74-12.15 130.44-12Q134.89-13.25 134.89-17.45L134.89-17.45Q134.89-19.65 133.59-20.75 132.29-21.85 129.64-21.95L129.64-21.95 125.79-21.9ZM157.54-24.9L166.29 0 162.54 0 161.94-2.7 160.64-6.4 154.69-6.45 149.39-6.4 148.04-2.9 147.34 0 143.64 0 153.24-24.9 157.54-24.9ZM154.99-9.4L159.59-9.45 155.44-21.25 155.14-21.25 150.59-9.45 154.99-9.4ZM181.48-25.15Q185.63-25.15 188.68-23.4L188.68-23.4 187.98-19.95 187.53-19.8Q186.28-20.85 184.63-21.45 182.98-22.05 181.08-22.05L181.08-22.05Q177.38-22.05 175.43-19.68 173.48-17.3 173.48-12.6L173.48-12.6Q173.48-7.85 175.43-5.35 177.38-2.85 181.08-2.85L181.08-2.85Q182.88-2.85 184.71-3.48 186.53-4.1 187.98-5.15L187.98-5.15 188.43-5 188.08-1.55Q184.68 0.3 180.93 0.3L180.93 0.3Q175.43 0.3 172.48-2.98 169.53-6.25 169.53-12.3L169.53-12.3Q169.53-18.45 172.66-21.8 175.78-25.15 181.48-25.15L181.48-25.15ZM213.53-24.95L202.93-13.25Q208.23-6.75 214.18-0.85L214.18-0.85 214.08-0.3Q212.53 0.2 210.48 0.45L210.48 0.45 209.88 0.2Q203.48-7 198.83-13L198.83-13 198.83-13.3 207.43-22.7 209.08-24.9 213.53-24.95ZM198.58-24.9L198.43-7.8 198.53 0 194.83 0 194.98-7.5 194.83-24.9 198.58-24.9Z" opacity="1" transform="matrix(1,0,0,1,0,0)" fill="#ffffff" class="wordmark-text-0" data-fill-palette-color="primary" id="text-0"></path></svg></g></svg></g><g transform="matrix(1,0,0,1,0,74.56131081370249)"><svg viewBox="0 0 232.209792 17.936252848904616" height="17.936252848904616" width="232.209792"><g transform="matrix(1,0,0,1,0,0)"><svg width="232.209792" viewBox="2.35 -37.8 664.0799999999999 51.3" height="17.936252848904616" data-palette-color="#ffffff"><path d="M11.95-1.7L18.3-3.15 20.25-5.85 20.15-10.3 17.9-12.7 5.2-19.75 2.9-25.15 3.35-29.85 6.2-33.7 13.15-36 20.8-35.4 23.15-35.6 22.75-33.05 22.8-26.5 20.95-26.1 19.65-32.7 13.75-33.5 8.7-31.6 7.55-28.3 8.65-24.05 21.25-17.15 24.95-13.3 25.15-5.4 21.3-0.6 13.95 1 4.7-0.1 2.35-0.45 2.75-2.4 3.2-8.95 5.05-9.35 5.85-2.75 11.95-1.7ZM43.1-1.2L40.3 0.5 36.9 1 33.35-0.2 31.75-4.2 32-13.5 31.75-21.9 28.3-22.4 28-24.15 31.95-25.2 33.75-30.25 36.3-30.25 36.15-24.65 42.2-24.45 41.9-22.25 36.65-21.9 36.45-19.6 36.65-4.45 37.65-1.45 42.35-2.7 43.1-1.2ZM63.8-19.8L63.85-9.1 64.2-2.05 67.65-1.55 67.3 0.1 60.34 0.7 59.7-2.25 59.45-2.25 54.5 0.7 49.3 0.7 45.8-1.85 44.75-6.75 46.95-10.65 52.95-13.25 59.55-13.5 59.35-19.75 58.4-22.85 54.35-24 49.5-22.85 49.35-17.55 47.4-17.15 46.1-24 51.85-25.7 58.3-26 62.2-24.1 63.8-19.8ZM49.6-6.85L50.95-2.8 54.7-1.85 59.75-4.75 59.55-11.5 55.2-11.5 51.35-9.95 49.6-6.85ZM76.39 13L73.89 13.5 72.34 11.25 70.84 7.15 72.74 6.45 75.54 10.6 78.09 8.15 81.59 0.15 73.84-19.7 72.09-22.75 68.54-23.5 68.79-25.25 74.89-25 80.84-25.25 80.74-23.5 77.84-22.65 78.59-19.55 81.29-12.65 84.04-4.6 84.19-4.6 86.69-12.45 89.24-19.6 89.74-22.8 86.94-23.5 87.19-25.25 92.54-25 96.79-25.25 96.69-23.5 93.64-22.6 91.89-18.85 84.44 1.05 80.14 9.3 76.39 13ZM112.29-4.55L110.64-9.5 110.64-16.05 113.59-22 119.24-25.75 126.09-26 132.34-22.25 135.59-16.25 134.99-7.1 131.29-1.2 123.54 1 117.04-0.25 112.29-4.55ZM119.29-23.2L116.14-17.75 115.89-12.15 116.49-6.35 118.64-2.6 123.94-1.3 128.84-3.45 130.29-11.25 129.79-17.75 127.94-21.9 124.29-23.75 119.29-23.2ZM163.34-8.3L163.74-2.45 167.29-1.5 167.04 0.25 161.14 0 155.04 0.25 155.14-1.5 158.44-2.5 158.79-7.75 158.59-18.65 157.24-21.95 152.99-22.7 147.54-19.9 147.44-18.15 147.14-13.15 147.24-8.3 147.49-2.5 151.14-1.5 150.89 0.25 144.99 0 138.89 0.25 138.99-1.5 142.29-2.5 142.64-7.75 142.19-22.55 138.64-22.4 138.39-24.15 145.29-25.5 147.79-24.95 147.64-22.4 152.99-25.65 158.09-26 162.69-22.85 163.44-18.85 163.34-8.3ZM179.83-35.5L185.68-35 204.58-35 210.43-35.5 209.68-32.05 209.38-25.75 207.08-25.6 206.28-32.75 197.53-33.2 197.08-16.4 197.38-7 197.63-2.5 201.48-1.25 201.13 0.5 195.03 0 188.18 0.5 188.28-1.25 192.38-2.45 192.43-7.6 192.78-21.8 192.28-33.2 183.98-32.75 183.18-25.6 180.88-25.75 180.58-32.05 179.83-35.5ZM220.93-24.95L220.73-20.9 220.93-20.9 224.03-24.45 227.43-25.95 231.18-25 230.33-17.55 228.58-17.9 227.33-23.05 224.08-22 220.53-17.85 220.28-13.15 220.43-8.3 220.63-2.5 225.63-1.5 225.38 0.25 218.13 0 212.03 0.25 212.13-1.5 215.43-2.5 215.68-7.75 215.58-17.35 215.33-22.55 211.78-22.4 211.53-24.15 218.43-25.5 220.93-24.95ZM252.58-19.8L252.63-9.1 252.98-2.05 256.43-1.55 256.08 0.1 249.13 0.7 248.48-2.25 248.23-2.25 243.28 0.7 238.08 0.7 234.58-1.85 233.53-6.75 235.73-10.65 241.73-13.25 248.33-13.5 248.13-19.75 247.18-22.85 243.13-24 238.28-22.85 238.13-17.55 236.18-17.15 234.88-24 240.63-25.7 247.08-26 250.98-24.1 252.58-19.8ZM238.38-6.85L239.73-2.8 243.48-1.85 248.53-4.75 248.33-11.5 243.98-11.5 240.13-9.95 238.38-6.85ZM276.77-16.9L275.87-23.15 269.57-23.65 265.07-18.85 263.77-13.65 264.42-8.35 267.62-2.55 273.77-1.55 278.47-4.05 279.37-2.75 275.42 0.4 270.72 1 263.57-1.05 259.12-8.3 259.07-16.65 262.47-22.6 267.72-25.35 272.27-26 279.92-25 278.42-17.15 276.77-16.9ZM291.87-13.8L297.12-19.6 299.42-22.95 296.07-23.5 296.32-25.25 301.57-25 306.17-25.25 306.07-23.5 302.57-22.4 295.42-14.7 299.57-8.85 304.72-2.5 307.67-1.5 307.42 0.25 302.22 0 297.47 0.25 297.57-1.5 299.97-1.65 298.62-4.15 292.82-11.85 290.37-11.85 290.47-8.3 290.57-2.5 294.02-1.5 293.72 0.25 288.17 0 281.77 0.25 281.97-1.5 285.47-2.35 285.62-7.75 285.82-18.7 285.62-29.85 285.37-34.85 281.82-34.7 281.57-36.45 288.47-37.8 290.97-37.25 290.62-30.65 290.32-13.8 291.87-13.8ZM332.87 1.5L325.57-18.2 323.32-22.6 319.97-23.5 320.22-25.25 326.32-25 332.42-25.25 332.32-23.5 328.92-22.5 329.72-19.6 332.42-11.25 334.42-3.95 334.57-3.95 335.92-9.05 339.72-19.8 338.32-22.6 334.97-23.5 335.22-25.25 341.32-25 347.42-25.25 347.32-23.5 343.92-22.5 344.72-19.6 347.12-11.25 349.12-3.95 349.27-3.95 350.62-9.05 354.12-19.45 354.92-22.65 351.02-23.5 351.27-25.25 356.17-25 361.47-25.25 361.37-23.5 358.27-22.5 356.12-17.9 350.77-1.45 349.22 1.15 347.57 1.5 341.17-16.4 336.07-1.45 334.52 1.15 332.87 1.5ZM371.76-24.95L371.41-18.15 371.11-13.15 371.26-8.3 371.46-2.5 375.11-1.5 374.86 0.25 368.96 0 362.86 0.25 362.96-1.5 366.26-2.5 366.51-7.75 366.41-17.35 366.16-22.55 362.61-22.4 362.36-24.15 369.26-25.5 371.76-24.95ZM364.71-34.4L365.86-36.25 368.11-37.3 370.41-36.55 371.46-33.95 370.11-31.85 367.86-30.95 365.76-32.25 364.71-34.4ZM391.81-1.2L389.01 0.5 385.61 1 382.06-0.2 380.46-4.2 380.71-13.5 380.46-21.9 377.01-22.4 376.71-24.15 380.66-25.2 382.46-30.25 385.01-30.25 384.86-24.65 390.91-24.45 390.61-22.25 385.36-21.9 385.16-19.6 385.36-4.45 386.36-1.45 391.06-2.7 391.81-1.2ZM401.76-37.25L401.51-30.45 401.36-22.25 406.91-25.65 412.01-26 416.61-22.85 417.36-18.85 417.26-8.3 417.66-2.45 421.21-1.5 420.96 0.25 415.06 0 408.96 0.25 409.06-1.5 412.36-2.5 412.71-7.75 412.51-18.65 411.16-21.95 406.91-22.7 401.31-19.85 401.21-13.15 401.31-8.3 401.46-2.5 405.11-1.5 404.86 0.25 398.96 0 392.86 0.25 392.96-1.5 396.26-2.5 396.71-7.75 396.51-29.65 396.16-34.85 392.61-34.7 392.36-36.45 399.26-37.8 401.76-37.25ZM434.2-35.5L440.05-35 458.95-35 464.8-35.5 464.05-32.05 463.75-25.75 461.45-25.6 460.65-32.75 451.9-33.2 451.45-16.4 451.75-7 452-2.5 455.85-1.25 455.5 0.5 449.4 0 442.55 0.5 442.65-1.25 446.75-2.45 446.8-7.6 447.15-21.8 446.65-33.2 438.35-32.75 437.55-25.6 435.25-25.75 434.95-32.05 434.2-35.5ZM485.4-19.8L485.45-9.1 485.8-2.05 489.25-1.55 488.9 0.1 481.95 0.7 481.3-2.25 481.05-2.25 476.1 0.7 470.9 0.7 467.4-1.85 466.35-6.75 468.55-10.65 474.55-13.25 481.15-13.5 480.95-19.75 480-22.85 475.95-24 471.1-22.85 470.95-17.55 469-17.15 467.7-24 473.45-25.7 479.9-26 483.8-24.1 485.4-19.8ZM471.2-6.85L472.55-2.8 476.3-1.85 481.35-4.75 481.15-11.5 476.8-11.5 472.95-9.95 471.2-6.85ZM494.75-7.5L495.15-1.95 499.3-1.3 503.95-1.95 505.05-5.35 503.7-7.95 494.4-13.6 492.4-16.75 492.3-22.05 495.85-25.05 501.1-26 508.45-24.5 507.4-17.15 505.3-17.85 504.35-23.05 500.9-23.7 497.15-22.85 496.2-20.1 497.4-17.15 507-11.65 509.35-8.7 509.55-4 506.15 0 500.15 1 496 0.8 491.35-1 492.6-8.2 494.75-7.5ZM522.1-13.8L527.35-19.6 529.65-22.95 526.3-23.5 526.55-25.25 531.8-25 536.4-25.25 536.3-23.5 532.8-22.4 525.65-14.7 529.8-8.85 534.95-2.5 537.9-1.5 537.65 0.25 532.45 0 527.7 0.25 527.8-1.5 530.2-1.65 528.85-4.15 523.05-11.85 520.6-11.85 520.7-8.3 520.8-2.5 524.25-1.5 523.95 0.25 518.4 0 512 0.25 512.2-1.5 515.7-2.35 515.85-7.75 516.05-18.7 515.85-29.85 515.6-34.85 512.05-34.7 511.8-36.45 518.7-37.8 521.2-37.25 520.85-30.65 520.55-13.8 522.1-13.8ZM538.59-35.5L544.44-35 563.34-35 569.19-35.5 568.44-32.05 568.14-25.75 565.84-25.6 565.04-32.75 556.29-33.2 555.84-16.4 556.14-7 556.39-2.5 560.24-1.25 559.89 0.5 553.79 0 546.94 0.5 547.04-1.25 551.14-2.45 551.19-7.6 551.54-21.8 551.04-33.2 542.74-32.75 541.94-25.6 539.64-25.75 539.34-32.05 538.59-35.5ZM579.69-24.95L579.49-20.9 579.69-20.9 582.79-24.45 586.19-25.95 589.94-25 589.09-17.55 587.34-17.9 586.09-23.05 582.84-22 579.29-17.85 579.04-13.15 579.19-8.3 579.39-2.5 584.39-1.5 584.14 0.25 576.89 0 570.79 0.25 570.89-1.5 574.19-2.5 574.44-7.75 574.34-17.35 574.09-22.55 570.54-22.4 570.29-24.15 577.19-25.5 579.69-24.95ZM611.34-19.8L611.39-9.1 611.74-2.05 615.19-1.55 614.84 0.1 607.89 0.7 607.24-2.25 606.99-2.25 602.04 0.7 596.84 0.7 593.34-1.85 592.29-6.75 594.49-10.65 600.49-13.25 607.09-13.5 606.89-19.75 605.94-22.85 601.89-24 597.04-22.85 596.89-17.55 594.94-17.15 593.64-24 599.39-25.7 605.84-26 609.74-24.1 611.34-19.8ZM597.14-6.85L598.49-2.8 602.24-1.85 607.29-4.75 607.09-11.5 602.74-11.5 598.89-9.95 597.14-6.85ZM635.53-16.9L634.63-23.15 628.33-23.65 623.83-18.85 622.53-13.65 623.18-8.35 626.38-2.55 632.53-1.55 637.23-4.05 638.13-2.75 634.18 0.4 629.48 1 622.33-1.05 617.88-8.3 617.83-16.65 621.23-22.6 626.48-25.35 631.03-26 638.68-25 637.18-17.15 635.53-16.9ZM650.63-13.8L655.88-19.6 658.18-22.95 654.83-23.5 655.08-25.25 660.33-25 664.93-25.25 664.83-23.5 661.33-22.4 654.18-14.7 658.33-8.85 663.48-2.5 666.43-1.5 666.18 0.25 660.98 0 656.23 0.25 656.33-1.5 658.73-1.65 657.38-4.15 651.58-11.85 649.13-11.85 649.23-8.3 649.33-2.5 652.78-1.5 652.48 0.25 646.93 0 640.53 0.25 640.73-1.5 644.23-2.35 644.38-7.75 644.58-18.7 644.38-29.85 644.13-34.85 640.58-34.7 640.33-36.45 647.23-37.8 649.73-37.25 649.38-30.65 649.08-13.8 650.63-13.8Z" opacity="1" transform="matrix(1,0,0,1,0,0)" fill="#ffffff" class="slogan-text-1" data-fill-palette-color="secondary" id="text-1"></path></svg></g></svg></g></svg></g></svg></g><g><svg viewBox="0 0 227.5274588351568 227.5274588351568" height="227.5274588351568" width="227.5274588351568"><g><svg></svg></g><g id="icon-0"><svg viewBox="0 0 227.5274588351568 227.5274588351568" height="227.5274588351568" width="227.5274588351568"><g><path d="M0 113.764c0-62.83 50.934-113.764 113.764-113.764 62.83 0 113.764 50.934 113.763 113.764 0 62.83-50.934 113.764-113.763 113.763-62.83 0-113.764-50.934-113.764-113.763zM113.764 222.088c59.826 0 108.324-48.498 108.324-108.324 0-59.826-48.498-108.324-108.324-108.324-59.826 0-108.324 48.498-108.324 108.324 0 59.826 48.498 108.324 108.324 108.324z" data-fill-palette-color="accent" fill="#ffffff" stroke="transparent"></path></g><g transform="matrix(1,0,0,1,51.97716316979612,45.80910353823492)"><svg viewBox="0 0 123.57313249556456 135.90925175868696" height="135.90925175868696" width="123.57313249556456"><g><svg xmlns="http://www.w3.org/2000/svg" xmlns:xlink="http://www.w3.org/1999/xlink" version="1.0" x="0" y="0" viewBox="2 0 12.883127534945315 14.169230707565026" style="enable-background:new 0 0 16 16;" xml:space="preserve" height="135.90925175868696" width="123.57313249556456" class="icon-dxe-0" data-fill-palette-color="accent" id="dxe-0"><path d="M10.216 14.068A0.295 0.295 0 0 1 9.772 14.069L7.003 10.985A0.35 0.35 0 0 1 7.014 10.506L7.489 10.03A0.326 0.326 0 0 1 7.953 10.034L9.758 11.9A0.31 0.31 0 0 0 10.212 11.893L13.636 8.141A0.335 0.335 0 0 1 14.106 8.119L14.526 8.449C14.984 8.907 15.02 8.955 14.526 9.449z" fill="#ffffff" data-fill-palette-color="accent"></path><path d="M7.5 2C7 2 7 3 7 3H8S8 2 7.5 2" fill="#ffffff" data-fill-palette-color="accent"></path><path d="M12 2H10C9.914 1 9 0 7.5 0S5.086 1 5 2H3S2 2 2 3V13C2 14 3 14 3 14H8.628L6.128 11.515C5.708 11.054 5.937 10.463 6.378 10.023L7.128 9.276C7.345 9.059 7.572 9.028 7.878 9.028 8.187 9.028 8.663 9.307 8.878 9.53L10.023 10.78 13 7.571V3C13 2 12 2 12 2M4.5 8H4S3.5 8 3.5 7.5 4 7 4 7H4.5S5 7 5 7.5 4.5 8 4.5 8M4.5 6H4S3.5 6 3.5 5.5 4 5 4 5H4.5S5 5 5 5.5 4.5 6 4.5 6M11 8H6.5S6 8 6 7.5 6.5 7 6.5 7H11S11.5 7 11.5 7.5 11 8 11 8M11 6H6.5S6 6 6 5.5 6.5 5 6.5 5H11S11.5 5 11.5 5.5 11 6 11 6M3 4S3 3 4 3H6S6 1.062 7.5 1.062 9.027 3 9 3H11C12 3 12 4 12 4z" fill="#ffffff" data-fill-palette-color="accent"></path></svg></g></svg></g></svg></g></svg></g></svg></g><defs></defs></svg><rect width="395.52" height="138.1239836098949" fill="none" stroke="none" visibility="hidden"></rect></g></svg></g></svg>